<?xml version="1.0" encoding="utf-8"?>
<!-- Generator: Adobe Illustrator 28.1.0, SVG Export Plug-In . SVG Version: 6.00 Build 0)  -->
<svg version="1.1" xmlns="http://www.w3.org/2000/svg" xmlns:xlink="http://www.w3.org/1999/xlink" x="0px" y="0px" width="1920px"
	 height="1080px" viewBox="0 0 1920 1080" style="enable-background:new 0 0 1920 1080;" xml:space="preserve">
<g id="Text">
	<g id="Kolonialismus">
		<path d="M688.6,477.5h32.2c1.2-6.1,1.8-12.4,1.8-19.1v-11.3c0-52-36-84.8-81.4-84.8c-45.4,0-81.7,32.9-81.7,84.8l32.2,0.3
			c0-40.7,22.5-57.9,49.5-57.9c26.9,0,49.2,17.2,49.2,57.9v11.9C690.3,466,689.7,472,688.6,477.5z"/>
		<path d="M510.9,447.1c0-52-36-84.8-81.4-84.8c-45.4,0-81.7,32.9-81.7,84.8v11.3c0,6.7,0.6,13,1.8,19.1h32.2
			c-1.1-5.5-1.7-11.5-1.7-18.2v-11.9c0-40.7,22.5-57.9,49.5-57.9c26.9,0,49.2,17.2,49.2,57.9L510.9,447.1z"/>
		<polygon points="259.2,413.3 366.3,305.3 327.2,305.3 224.2,411.1 224.2,305.3 191,305.3 191,517.5 224.2,517.5 224.2,419.2 
			275.3,477.5 315.5,477.5 		"/>
		<rect x="519.4" y="292.4" width="31.6" height="185"/>
		<path d="M870.9,477.5v-52.9c0-39.8-21.6-62.3-59.8-62.3c-24.7,0-41.3,15.7-50.1,33.2V366H731v111.4h31.6v-37.9
			c0-34.1,20.4-50.1,43.2-50.1c19.4,0,33.5,12.8,33.5,37.9v50.1H870.9z"/>
		<rect x="1544.6" y="366" width="31.6" height="111.4"/>
		<rect x="1114.2" y="320.9" width="31" height="33.5"/>
		<rect x="880.6" y="366" width="31.6" height="111.4"/>
		<path d="M1653,466.5c0,3.9-0.3,7.5-0.8,10.9h32.4V366H1653V466.5z"/>
		<rect x="881" y="320.9" width="31" height="33.5"/>
		<rect x="1113.9" y="366" width="31.6" height="140.4"/>
		<rect x="1071.6" y="292.4" width="31.6" height="215"/>
		<path d="M995.4,388.7c20.8,0,35.5,7.5,35.5,23.3s-15.9,19.9-43.6,25.5c-40.3,8.1-63.5,20.1-66.8,48.2l31.1,3
			c1.1-16.9,11.1-21.4,37.5-27.3c20.5-4.7,34.2-8.7,40.8-14.3v40.1c0,3.3-0.5,6.3-1.4,9l32.8,3.2v-83.7c0-31.7-21.8-53.5-65.6-53.5
			c-39.5,0-67.5,22.1-71.2,58.5h31.1C959,399.9,970.8,388.7,995.4,388.7z"/>
		<path d="M1834.7,491.8c0-35.5-23.6-42.6-63.2-52.9c-39.8-10.3-43.9-16.5-43.9-28c0-14.3,13.1-20.8,32-20.8
			c18,0,38.3,8.7,39.8,30.5h31.4c-5.3-41.4-36.7-57.6-71.2-57.6c-37.6,0-61.6,21.8-61.6,48.8c0,27.7,15.9,42.3,62.2,53.8
			c28,6.8,44.2,10.3,44.2,27.1c0,4.1-0.8,7.8-2.4,11c9.4,2.3,18.8,5.1,28.1,7.8C1833.1,505.3,1834.7,498.6,1834.7,491.8z"/>
		<path d="M1332.9,365.9V392c8.7-15.6,24.3-29.9,47.6-29.9c23.3,0,39.2,10.6,47,29.6c9-15.6,25.8-29.6,51.6-29.6
			c35.2,0,55.7,22.1,55.7,59.1v85h-31.4v-82.2c0-22.4-10.6-34.8-29.2-34.8c-21.8,0-39.5,15.6-39.5,47v82.5h-31.4v-94.7
			c0-22.4-10.6-34.8-29.2-34.8c-21.8,0-39.5,15.6-39.5,47v102.7H1303v-173H1332.9z"/>
		<path d="M1229.1,517.1c-21.5,0-42-9-43.9-34.5H1152c1.1,14.5,6.4,26,14.3,35h119.4c5.6-7.9,8.5-17.1,8.5-26.6
			c0-35.5-23.6-42.6-63.2-52.9c-39.8-10.3-43.9-16.5-43.9-28c0-14.3,13.1-20.8,32-20.8c18,0,38.3,8.7,39.8,30.5h31.4
			c-5.3-41.4-36.7-57.6-71.2-57.6c-37.6,0-61.6,21.8-61.6,48.8c0,27.7,15.9,42.3,62.2,53.8c28,6.8,44.2,10.3,44.2,27.1
			C1263.9,507.4,1252.4,517.1,1229.1,517.1z"/>
	</g>
	<g id="erinnern">
		<path d="M269.9,776c36.3,0,67-18.8,73.9-60.4h-31c-5,25-20.3,35.1-42.9,35.1c-29.1,0-50.4-20-50.4-57.3v-2.2h125.2v-11.6
			c0-23.6-5.9-43.2-17-57.6h-51.4c21.4,3,33.6,17.1,36.1,43.5h-91.7c4.1-26.7,19.6-40.5,38.3-43.5h-51.7
			c-12.2,14.6-19.5,34.5-19.5,58.2v12.2C187.9,739.6,222,776,269.9,776z"/>
		<path d="M961.4,611.2V772h31.4l0.5-93.7c0-40.1,22.8-53.8,48.5-53.8c6.3,0,11.9,0.6,15.3,1.3v-3.8h-60.8c-1.7,2.5-3.3,5.1-4.7,7.8
			v-18.5H961.4z"/>
		<rect x="457.1" y="621.9" width="31.6" height="150.6"/>
		<path d="M867.6,621.9H816c-12.2,14.6-19.5,34.5-19.5,58.2v12.2c0,47.3,34.1,83.6,82,83.6c36.3,0,67-18.8,73.9-60.4h-31
			c-5,25-20.3,35.1-42.9,35.1c-29.1,0-50.4-20-50.4-57.3v-2.2h125.2v-11.6c0-23.6-5.9-43.2-17-57.6h-51.4
			c21.4,3,33.6,17.1,36.1,43.5h-91.7C833.4,638.8,848.9,624.9,867.6,621.9z"/>
		<path d="M649,621.9v150.6h31.6V672c0-34.1,20.3-50.1,43.2-50.1h-41.4c-1.2,1.9-2.3,3.9-3.3,6v-6H649z"/>
		<path d="M757.3,659.8v112.7h31.6V657c0-13.9-2.6-25.6-7.7-35.1h-57.4C743.2,621.9,757.3,634.8,757.3,659.8z"/>
		<path d="M384.3,602v30.7c9.8-19.3,28.5-33.4,54.3-33.4c4,0,8.3,0.6,9.8,1.2v28.2c-3.4-0.6-8.9-1.2-15-1.2
			c-25.2,0-47.5,13.5-47.5,52.8v92.3h-31V602H384.3z"/>
		<path d="M529.5,599v29.4c8.8-17.5,25.3-33.1,50-33.1c38.1,0,59.7,22.5,59.7,62.2v115.4h-31.6V660.3c0-25-14.1-37.8-33.5-37.8
			c-22.8,0-43.1,15.9-43.1,50v100.4h-31.6V599H529.5z"/>
		<path d="M1095.4,599v29.4c8.8-17.5,25.3-33.1,50-33.1c38.1,0,59.7,22.5,59.7,62.2v115.4h-31.6V660.3c0-25-14.1-37.8-33.5-37.8
			c-22.8,0-43.1,15.9-43.1,50v100.4h-31.6V599H1095.4z"/>
		<rect x="649" y="599" width="30" height="24.5"/>
		<path d="M991.3,630.4v-0.3c10-19.6,28.9-33.9,55.1-33.9c4,0,8.4,0.6,10,1.2v28.6c-3.4-0.6-9-1.2-15.2-1.2
			c-25.5,0-48.2,13.7-48.2,53.5V772h-31.4V630.4H991.3z"/>
		<rect x="457.1" y="573.7" width="31.6" height="34.2"/>
	</g>
</g>
<g id="Dots_00000158016634969393884450000004196043589739939232_">
	<circle cx="570.4" cy="580.6" r="13.5"/>
	<circle cx="965.1" cy="558.6" r="13.5"/>
	<circle cx="1089.9" cy="574.1" r="13.5"/>
	<circle cx="603.8" cy="599.5" r="13.5"/>
	<circle cx="214.7" cy="619.3" r="13.5"/>
	<circle cx="630.9" cy="602.7" r="13.5"/>
	<circle cx="1146.8" cy="590.7" r="13.5"/>
	<circle cx="751.6" cy="588" r="13.5"/>
	<circle cx="902.3" cy="599.4" r="13.5"/>
	<circle cx="882.8" cy="599.4" r="13.5"/>
	<circle cx="886.5" cy="584.6" r="13.5"/>
	<circle cx="871" cy="593.1" r="13.5"/>
	<circle cx="554.7" cy="516.4" r="13.5"/>
	<circle cx="981" cy="584" r="13.5"/>
	<circle cx="291.5" cy="595.3" r="13.5"/>
	<circle cx="267.3" cy="610.7" r="13.5"/>
	<circle cx="273.9" cy="614.6" r="13.5"/>
	<circle cx="281.9" cy="612.9" r="13.5"/>
	<circle cx="360.8" cy="599.5" r="13.5"/>
	<circle cx="241.1" cy="596.1" r="13.5"/>
	<circle cx="425.8" cy="614.3" r="13.5"/>
	<circle cx="582.6" cy="600.4" r="13.5"/>
	<circle cx="523.5" cy="530.7" r="13.5"/>
	<circle cx="567" cy="596.5" r="13.5"/>
	<circle cx="592" cy="580.6" r="13.5"/>
	<circle cx="705.4" cy="614.4" r="13.5"/>
	<circle cx="762.4" cy="578.4" r="13.5"/>
	<circle cx="731.8" cy="594.1" r="13.5"/>
	<circle cx="635.1" cy="578.9" r="13.5"/>
	<circle cx="767.5" cy="610" r="13.5"/>
	<circle cx="854" cy="611.2" r="13.5"/>
	<circle cx="919.7" cy="612.9" r="13.5"/>
	<circle cx="926.3" cy="623.6" r="13.5"/>
	<circle cx="868.6" cy="610.5" r="13.5"/>
	<circle cx="1031.7" cy="610.5" r="13.5"/>
	<circle cx="1005.9" cy="582.7" r="13.5"/>
	<circle cx="1181.3" cy="600.2" r="13.5"/>
	<circle cx="234.2" cy="620.7" r="13.5"/>
	<circle cx="247.7" cy="608.6" r="13.5"/>
	<circle cx="255.3" cy="579.4" r="13.5"/>
	<circle cx="303.6" cy="625.7" r="13.5"/>
	<circle cx="322.7" cy="615.8" r="13.5"/>
	<circle cx="319.8" cy="604.1" r="13.5"/>
	<circle cx="356.6" cy="618.8" r="13.5"/>
	<circle cx="347.3" cy="617.5" r="13.5"/>
	<circle cx="415.2" cy="597.2" r="13.5"/>
	<circle cx="609.4" cy="624.6" r="13.5"/>
	<circle cx="628.3" cy="621.9" r="13.5"/>
	<circle cx="695.6" cy="624.2" r="13.5"/>
	<circle cx="712.6" cy="618.8" r="13.5"/>
	<circle cx="699.9" cy="570.6" r="13.5"/>
	<circle cx="723.1" cy="575.3" r="13.5"/>
	<circle cx="751.2" cy="623.7" r="13.5"/>
	<circle cx="781.6" cy="601.4" r="13.5"/>
	<circle cx="841.5" cy="611.2" r="13.5"/>
	<circle cx="903.5" cy="624.1" r="13.5"/>
	<circle cx="928" cy="581.1" r="13.5"/>
	<circle cx="1022.8" cy="596.2" r="13.5"/>
	<circle cx="1049.9" cy="614.8" r="13.5"/>
	<circle cx="1040.5" cy="608.9" r="13.5"/>
	<circle cx="1121.2" cy="597" r="13.5"/>
	<circle cx="1171.3" cy="613.6" r="13.5"/>
	<circle cx="1198.5" cy="629.5" r="13.5"/>
	<circle cx="177.4" cy="601.9" r="13.5"/>
	<circle cx="244.3" cy="613.4" r="13.5"/>
	<circle cx="264" cy="627" r="13.5"/>
	<circle cx="303.6" cy="607.5" r="13.5"/>
	<circle cx="410.7" cy="610.2" r="13.5"/>
	<circle cx="323.6" cy="579" r="13.5"/>
	<circle cx="369.4" cy="624.4" r="13.5"/>
	<circle cx="376.4" cy="596.7" r="13.5"/>
	<circle cx="329.5" cy="622.4" r="13.5"/>
	<circle cx="430" cy="601.1" r="13.5"/>
	<circle cx="715.7" cy="602.1" r="13.5"/>
	<circle cx="617.5" cy="634.4" r="13.5"/>
	<circle cx="620.2" cy="606" r="13.5"/>
	<circle cx="662.9" cy="634.1" r="13.5"/>
	<circle cx="726.2" cy="549.1" r="13.5"/>
	<circle cx="621.7" cy="591.1" r="13.5"/>
	<circle cx="731.4" cy="614.9" r="13.5"/>
	<circle cx="775" cy="594.4" r="13.5"/>
	<circle cx="781.6" cy="622.6" r="13.5"/>
	<circle cx="752.4" cy="608.2" r="13.5"/>
	<circle cx="824.7" cy="618.1" r="13.5"/>
	<circle cx="888.4" cy="612.9" r="13.5"/>
	<ellipse transform="matrix(0.2898 -0.9571 0.9571 0.2898 166.9705 1433.5508)" cx="1049.4" cy="604.3" rx="13.5" ry="13.5"/>
	<circle cx="1019.4" cy="610.5" r="13.5"/>
	<circle cx="1038.1" cy="586.7" r="13.5"/>
	<circle cx="273.9" cy="539" r="13.5"/>
	<circle cx="411.5" cy="532.2" r="13.5"/>
	<circle cx="371.8" cy="469.8" r="13.5"/>
	<circle cx="498.5" cy="452.1" r="13.5"/>
	<circle cx="499.8" cy="541.5" r="13.5"/>
	<circle cx="467.5" cy="506.1" r="13.5"/>
	<circle cx="575.3" cy="465.1" r="13.5"/>
	<circle cx="588" cy="449.1" r="13.5"/>
	<circle cx="699.6" cy="470.3" r="13.5"/>
	<circle cx="748.9" cy="467.6" r="13.5"/>
	<circle cx="830.7" cy="478.5" r="13.5"/>
	<circle cx="864.9" cy="476.7" r="13.5"/>
	<circle cx="927.4" cy="494.4" r="13.5"/>
	<circle cx="997.5" cy="492.6" r="13.5"/>
	<circle cx="1048" cy="501.7" r="13.5"/>
	<circle cx="1089.9" cy="574.1" r="13.5"/>
	<circle cx="1129.7" cy="567.5" r="13.5"/>
	<circle cx="1277.1" cy="527.4" r="13.5"/>
	<circle cx="1326.4" cy="543.3" r="13.5"/>
	<circle cx="1425.6" cy="532.3" r="13.5"/>
	<circle cx="1555.4" cy="470.9" r="13.5"/>
	<circle cx="1574.4" cy="475.8" r="13.5"/>
	<circle cx="1675.9" cy="478" r="13.5"/>
	<circle cx="1656.1" cy="478.3" r="13.5"/>
	<circle cx="1675.9" cy="462.2" r="13.5"/>
	<circle cx="1768.8" cy="512.2" r="13.5"/>
	<circle cx="1756.1" cy="570" r="13.5"/>
	<circle cx="1817" cy="479.5" r="13.5"/>
	<circle cx="1771.7" cy="542.9" r="13.5"/>
	<circle cx="278.5" cy="496.6" r="13.5"/>
	<circle cx="140" cy="675.4" r="13.5"/>
	<circle cx="167.7" cy="528.4" r="13.5"/>
	<circle cx="166.1" cy="480.8" r="13.5"/>
	<circle cx="303.2" cy="465.5" r="13.5"/>
	<circle cx="283.1" cy="479" r="13.5"/>
	<circle cx="392" cy="494.8" r="13.5"/>
	<circle cx="405.1" cy="502" r="13.5"/>
	<circle cx="497.4" cy="467.7" r="13.5"/>
	<circle cx="546.2" cy="473.3" r="13.5"/>
	<circle cx="572" cy="452.1" r="13.5"/>
	<circle cx="681.1" cy="525.4" r="13.5"/>
	<circle cx="681.1" cy="557" r="13.5"/>
	<circle cx="716.5" cy="472.4" r="13.5"/>
	<circle cx="738.9" cy="473.9" r="13.5"/>
	<circle cx="755.1" cy="472.4" r="13.5"/>
	<circle cx="776.1" cy="478.6" r="13.5"/>
	<circle cx="842.8" cy="463.3" r="13.5"/>
	<circle cx="855" cy="469.7" r="13.5"/>
	<ellipse transform="matrix(0.1602 -0.9871 0.9871 0.1602 300.0703 1345.8583)" cx="941" cy="496.6" rx="13.5" ry="13.5"/>
	<circle cx="944.1" cy="522.7" r="13.5"/>
	<circle cx="887.7" cy="486.6" r="13.5"/>
	<circle cx="902.7" cy="484.9" r="13.5"/>
	<circle cx="1047.4" cy="512.5" r="13.5"/>
	<circle cx="1094" cy="510.7" r="13.5"/>
	<circle cx="1079.7" cy="504.4" r="13.5"/>
	<circle cx="1085.2" cy="529.1" r="13.5"/>
	<circle cx="1140.5" cy="515.5" r="13.5"/>
	<circle cx="1123.7" cy="513.9" r="13.5"/>
	<circle cx="1412.1" cy="544" r="13.5"/>
	<circle cx="1577.2" cy="501" r="13.5"/>
	<circle cx="1525.9" cy="514.5" r="13.5"/>
	<circle cx="1564.5" cy="472.9" r="13.5"/>
	<circle cx="1667.1" cy="496.2" r="13.5"/>
	<circle cx="1831.8" cy="458" r="13.5"/>
	<circle cx="1821.1" cy="509.6" r="13.5"/>
	<circle cx="216.7" cy="516.7" r="13.5"/>
	<circle cx="211.5" cy="569.5" r="13.5"/>
	<circle cx="184" cy="530.3" r="13.5"/>
	<circle cx="308" cy="481.2" r="13.5"/>
	<circle cx="363.5" cy="494.8" r="13.5"/>
	<circle cx="356.3" cy="473" r="13.5"/>
	<circle cx="441.6" cy="595.3" r="13.5"/>
	<circle cx="852.2" cy="485.3" r="13.5"/>
	<circle cx="1311.3" cy="543.3" r="13.5"/>
	<circle cx="1319.3" cy="564.1" r="13.5"/>
	<circle cx="1444.9" cy="540.3" r="13.5"/>
	<circle cx="1406.5" cy="522" r="13.5"/>
	<circle cx="1449.9" cy="589.7" r="13.5"/>
	<circle cx="1783.3" cy="547.7" r="13.5"/>
	<circle cx="1806.8" cy="510.7" r="13.5"/>
	<circle cx="1812.6" cy="526.6" r="13.5"/>
	<circle cx="209.9" cy="494.6" r="13.5"/>
	<circle cx="220.6" cy="497.8" r="13.5"/>
	<circle cx="126.5" cy="556.9" r="13.5"/>
	<circle cx="301" cy="549.4" r="13.5"/>
	<circle cx="297.7" cy="523.3" r="13.5"/>
	<circle cx="483.7" cy="487.4" r="13.5"/>
	<circle cx="772.4" cy="541.6" r="13.5"/>
	<circle cx="786.6" cy="510.1" r="13.5"/>
	<circle cx="829.6" cy="543.5" r="13.5"/>
	<circle cx="844.6" cy="504.7" r="13.5"/>
	<circle cx="939.4" cy="600.2" r="13.5"/>
	<circle cx="1029.6" cy="501.2" r="13.5"/>
	<circle cx="1427.5" cy="517.5" r="13.5"/>
	<circle cx="1598.7" cy="502" r="13.5"/>
	<circle cx="1553" cy="493.9" r="13.5"/>
	<circle cx="1564" cy="492.7" r="13.5"/>
	<circle cx="1680.7" cy="513.1" r="13.5"/>
	<circle cx="1604.3" cy="606.7" r="13.5"/>
	<circle cx="1633.4" cy="575" r="13.5"/>
	<circle cx="1719.4" cy="542.3" r="13.5"/>
	<circle cx="190.3" cy="505.6" r="13.5"/>
	<circle cx="333.7" cy="549.7" r="13.5"/>
	<circle cx="374.4" cy="567.6" r="13.5"/>
	<circle cx="358.7" cy="576.6" r="13.5"/>
	<circle cx="480.3" cy="454.2" r="13.5"/>
	<circle cx="631.9" cy="508.1" r="13.5"/>
	<circle cx="512.4" cy="558" r="13.5"/>
	<circle cx="1114.3" cy="554.7" r="13.5"/>
	<circle cx="1174.7" cy="522.7" r="13.5"/>
	<circle cx="1260.1" cy="526.6" r="13.5"/>
	<circle cx="1399.1" cy="555.9" r="13.5"/>
	<circle cx="1230" cy="555.9" r="13.5"/>
	<circle cx="1510.6" cy="511.5" r="13.5"/>
	<circle cx="201.1" cy="518.6" r="13.5"/>
	<circle cx="459.7" cy="539" r="13.5"/>
	<circle cx="667.5" cy="576.6" r="13.5"/>
	<circle cx="1021.1" cy="571.1" r="13.5"/>
	<circle cx="1028.3" cy="517.9" r="13.5"/>
	<circle cx="1192.1" cy="548.5" r="13.5"/>
	<circle cx="1206.4" cy="534.9" r="13.5"/>
	<circle cx="1192.8" cy="524.2" r="13.5"/>
	<circle cx="1248.6" cy="538.8" r="13.5"/>
	<circle cx="1231.2" cy="531.1" r="13.5"/>
	<circle cx="1357.4" cy="602.1" r="13.5"/>
	<circle cx="1284.2" cy="602.9" r="13.5"/>
	<circle cx="1508.5" cy="534.8" r="13.5"/>
	<circle cx="1589.4" cy="537.1" r="13.5"/>
	<circle cx="1568.5" cy="529.8" r="13.5"/>
	<circle cx="1637.3" cy="505.2" r="13.5"/>
	<circle cx="1630.1" cy="517.6" r="13.5"/>
	<circle cx="1742.6" cy="517.7" r="13.5"/>
	<circle cx="1669.6" cy="588.5" r="13.5"/>
	<circle cx="1698.1" cy="604" r="13.5"/>
	<circle cx="1743.6" cy="536" r="13.5"/>
	<circle cx="403.5" cy="557" r="13.5"/>
	<circle cx="628.3" cy="555" r="13.5"/>
	<circle cx="620.3" cy="540.4" r="13.5"/>
	<circle cx="786" cy="576.6" r="13.5"/>
	<circle cx="879.7" cy="549.7" r="13.5"/>
	<circle cx="829.6" cy="577.2" r="13.5"/>
	<circle cx="851.3" cy="590.7" r="13.5"/>
	<circle cx="894.3" cy="560.9" r="13.5"/>
	<circle cx="1253.1" cy="631.4" r="13.5"/>
	<circle cx="1243.4" cy="612.5" r="13.5"/>
	<circle cx="1491.4" cy="564.1" r="13.5"/>
	<circle cx="1651.7" cy="558.7" r="13.5"/>
	<circle cx="761.2" cy="558" r="13.5"/>
	<circle cx="1035.9" cy="552.3" r="13.5"/>
	<circle cx="556.8" cy="560.2" r="13.5"/>
	<circle cx="523.5" cy="476.2" r="13.5"/>
	<circle cx="704.3" cy="494.4" r="13.5"/>
	<circle cx="1202.7" cy="592.7" r="13.5"/>
	<circle cx="1223" cy="626.5" r="13.5"/>
	<circle cx="1166.8" cy="589" r="13.5"/>
	<path d="M1202.2,516.6l50.9,1l-3.2,9.9c0,0-28.8,1.8-29.2,1.7c-0.5-0.2-8.4-1.2-10.2-1.7c-1.8-0.4-13.5-9.9-13.5-9.9L1202.2,516.6z
		"/>
</g>
</svg>
